<?xml version="1.0" ?><!DOCTYPE svg  PUBLIC '-//W3C//DTD SVG 1.1//EN'  'http://www.w3.org/Graphics/SVG/1.1/DTD/svg11.dtd'><svg height="512px" style="enable-background:new 0 0 512 512;" version="1.1" viewBox="0 0 512 512" width="512px" xml:space="preserve" xmlns="http://www.w3.org/2000/svg" xmlns:xlink="http://www.w3.org/1999/xlink"><g id="_x32_25_x2C__document_x2C__file_x2C__page_x2C__pen_x2C__Resume"><g><path d="M289.659,149.636h66.993l-66.993-66.993V149.636z M291.993,341.416    l-8.317,36.379l36.38-8.347l20.948-20.921l-22.815-22.816v-4.75h4.776l22.815,22.789l110.76-110.758l-28.063-28.061    C382.984,250.426,337.49,295.921,291.993,341.416z M433.254,200.154l28.063,28.061l5.492-5.492l-28.062-28.059L433.254,200.154z     M443.523,189.887l28.062,28.059l10.213-10.213c2.801-2.801,4.201-6.507,4.201-10.214c0-3.706-1.4-7.386-4.201-10.187    l-7.661-7.659c-2.801-2.801-6.507-4.201-10.185-4.201c-3.706,0-7.412,1.4-10.213,4.201L443.523,189.887z M170.723,127.066h-67.158    v67.158h67.158V127.066z M100.188,120.313h73.91c1.867,0,3.376,1.511,3.376,3.377v73.912c0,1.84-1.509,3.35-3.376,3.35h-73.91    c-1.867,0-3.379-1.51-3.379-3.35v-73.912C96.809,121.823,98.322,120.313,100.188,120.313z M316.43,241.531H113.202v21.36H316.43    V241.531z M109.826,234.776h209.981c1.867,0,3.379,1.511,3.379,3.378v28.114c0,1.867-1.512,3.378-3.379,3.378H109.826    c-1.867,0-3.379-1.511-3.379-3.378v-28.114C106.446,236.287,107.959,234.776,109.826,234.776z M267.283,77.838    c-0.218,0.027-0.439,0.027-0.632,0H68.2v322.471v17.627h293.233v-80.281c-12.438,12.41-24.851,24.82-37.261,37.258l-0.053,0.027    l0,0l-0.027,0.055h-0.028l-0.028,0.027l-0.027,0.027l0,0c-0.492,0.439-1.071,0.687-1.675,0.797h-0.053l-42.339,9.719h-0.056    l-0.028,0.027h-0.024h-0.028h-0.056l0,0l-0.053,0.028h-0.028l0,0h-0.057h-0.027h-0.028h-0.024h-0.028l-0.028,0.026h-0.056l0,0    h-0.024h-0.057l0,0h-0.056h-0.028l0,0h-0.053h-0.028h-0.028h-0.056l0,0h-0.024h-0.057h-0.056h-0.024l0,0l-0.057-0.026h-0.028    h-0.027h-0.053l0,0h-0.028h-0.057l0,0l-0.056-0.028h-0.024h-0.028h-0.028h-0.027l-0.028-0.027h-0.053l0,0l-0.084-0.027l0,0h-0.081    v-0.027h-0.057h-0.027l-0.053-0.027h-0.028l-0.137-0.055l-0.028-0.027l-0.302-0.138h-0.028l-0.08-0.056h-0.028l-0.028-0.027    l-0.137-0.082l-0.056-0.027l-0.028-0.027l-0.028-0.027l-0.024-0.027l-0.057-0.027l0,0l-0.056-0.055h-0.024l-0.028-0.027    l-0.028-0.028l-0.027-0.027l-0.028-0.027l-0.053-0.027v-0.028l-0.057-0.027l-0.027-0.026l-0.028-0.056h-0.028l-0.024-0.055h-0.028    l-0.028-0.055l-0.027-0.027l-0.028-0.027l-0.024-0.027l-0.028-0.027l-0.028-0.027l-0.027-0.056l0,0l-0.028-0.056l-0.028-0.027    l-0.024-0.026l-0.028-0.028l-0.028-0.055L276.288,384l-0.024-0.027v-0.027l-0.057-0.083v-0.026l-0.164-0.303v-0.027l-0.057-0.137    v-0.028l-0.024-0.055v-0.028v-0.055h-0.028v-0.082l0,0l-0.028-0.082l0,0v-0.055l-0.027-0.028v-0.027v-0.026v-0.028v-0.027    l-0.028-0.056l0,0v-0.055v-0.027l0,0v-0.055l-0.028-0.027V382.6v-0.055l0,0v-0.027v-0.055v-0.056v-0.027l0,0v-0.056v-0.027v-0.027    v-0.055l0,0v-0.027v-0.055l0,0v-0.055v-0.027l0,0v-0.055v-0.027v-0.028l0.028-0.055l0,0v-0.027v-0.056l0,0v-0.026l0.028-0.056    v-0.027v-0.027v-0.027v-0.027l0.027-0.027v-0.055l9.718-42.338v-0.055c0.112-0.659,0.415-1.291,0.881-1.785h0.028l0.024-0.055    l74.876-74.845V156.39h-75.149c-1.867,0-3.376-1.538-3.376-3.377V77.838H267.283z M108.892,298.227    c-1.867,0-3.379-1.51-3.379-3.377c0-1.839,1.513-3.377,3.379-3.377h133.105c1.867,0,3.376,1.538,3.376,3.377    c0,1.867-1.509,3.377-3.376,3.377H108.892z M108.892,318.627c-1.867,0-3.379-1.51-3.379-3.377s1.513-3.377,3.379-3.377h133.105    c1.867,0,3.376,1.51,3.376,3.377s-1.509,3.377-3.376,3.377H108.892z M108.892,339c-1.867,0-3.379-1.511-3.379-3.377    c0-1.84,1.513-3.378,3.379-3.378h133.105c1.867,0,3.376,1.538,3.376,3.378c0,1.866-1.509,3.377-3.376,3.377H108.892z     M108.892,359.399c-1.867,0-3.379-1.511-3.379-3.378c0-1.866,1.513-3.377,3.379-3.377h133.105c1.867,0,3.376,1.511,3.376,3.377    c0,1.867-1.509,3.378-3.376,3.378H108.892z M108.892,379.771c-1.867,0-3.379-1.51-3.379-3.377s1.513-3.377,3.379-3.377h133.105    c1.867,0,3.376,1.51,3.376,3.377s-1.509,3.377-3.376,3.377H108.892z M38.495,441.191c-1.867,0-3.379-1.511-3.379-3.378    s1.512-3.377,3.379-3.377h231.069c1.866,0,3.376,1.51,3.376,3.377s-1.51,3.378-3.376,3.378H38.495z M173.797,455.248    c-1.867,0-3.376-1.511-3.376-3.378c0-1.866,1.509-3.376,3.376-3.376H333.7c1.867,0,3.376,1.51,3.376,3.376    c0,1.867-1.509,3.378-3.376,3.378H173.797z M350.065,455.248c-1.867,0-3.38-1.511-3.38-3.378c0-1.866,1.513-3.376,3.38-3.376    h19.986c1.867,0,3.376,1.51,3.376,3.376c0,1.867-1.509,3.378-3.376,3.378H350.065z M29.377,454.809    c-1.839,0-3.376-1.51-3.376-3.377c0-1.84,1.537-3.35,3.376-3.35h75.781c1.867,0,3.376,1.51,3.376,3.35    c0,1.867-1.509,3.377-3.376,3.377H29.377z M61.447,396.85V74.488v-0.109l0.028-0.082l0,0v-0.083l0,0v-0.083l0,0l0.052-0.328l0,0    c0.33-1.538,1.678-2.691,3.295-2.691h194.005l-14.36-14.359H27.788V396.85H61.447z" style="fill-rule:evenodd;clip-rule:evenodd;"/></g></g><g id="Layer_1"/></svg>