<svg xmlns="http://www.w3.org/2000/svg" xmlns:xlink="http://www.w3.org/1999/xlink" width="105" height="99" viewBox="0 0 105 99">
  <defs>
    <style>
      .cls-1 {
        fill: rgba(255,255,255,0.14);
        stroke: #f5f5f5;
        stroke-linecap: round;
        stroke-width: 3px;
        stroke-dasharray: 0 1;
      }

      .cls-2 {
        fill: #fff;
        stroke-width: 1.5px;
      }

      .cls-2, .cls-4 {
        stroke: #fff;
      }

      .cls-3, .cls-4, .cls-6 {
        fill: none;
      }

      .cls-3 {
        stroke: #fcfcfc;
        stroke-width: 10px;
      }

      .cls-4 {
        stroke-width: 5px;
      }

      .cls-5 {
        stroke: none;
      }

      .cls-7 {
        filter: url(#Ellipse_2);
      }
    </style>
    <filter id="Ellipse_2" x="0" y="0" width="105" height="99" filterUnits="userSpaceOnUse">
      <feOffset dy="3" input="SourceAlpha"/>
      <feGaussianBlur stdDeviation="3" result="blur"/>
      <feFlood flood-color="#e60a0a" flood-opacity="0.161"/>
      <feComposite operator="in" in2="blur"/>
      <feComposite in="SourceGraphic"/>
    </filter>
  </defs>
  <g id="Group_2" data-name="Group 2" transform="translate(-270 9)">
    <g class="cls-7" transform="matrix(1, 0, 0, 1, 270, -9)">
      <g id="Ellipse_2-2" data-name="Ellipse 2" class="cls-1" transform="translate(12 9)">
        <ellipse class="cls-5" cx="40.5" cy="37.5" rx="40.5" ry="37.5"/>
        <ellipse class="cls-6" cx="40.5" cy="37.5" rx="42" ry="39"/>
      </g>
    </g>
    <path id="Path_13" data-name="Path 13" class="cls-2" d="M9.363,0,6.145,7.714,5.462,9.351,4.916,10.66l-.088.21L3.9,13.091,0,22.442" transform="translate(311.205 31.364) rotate(-21)"/>
    <line id="Line_4" data-name="Line 4" class="cls-3" x2="14" y2="30" transform="translate(293.5 25.5)"/>
    <path id="Path_14" data-name="Path 14" class="cls-4" d="M0,0,3.094,10.313l1.219,4.063L9,30" transform="translate(304.957 24.053) rotate(-6)"/>
    <path id="Path_15" data-name="Path 15" class="cls-2" d="M9.363,22.442,6.145,14.727l-.683-1.636-.546-1.309-.088-.21L3.9,9.351,0,0" transform="translate(322.241 52.315) rotate(-159)"/>
    <line id="Line_5" data-name="Line 5" class="cls-3" x1="14" y2="30" transform="translate(333.989 25.5)"/>
    <path id="Path_16" data-name="Path 16" class="cls-4" d="M0,30,3.094,19.688l1.219-4.063L9,0" transform="matrix(-0.995, -0.105, 0.105, -0.995, 333.396, 53.888)"/>
  </g>
</svg>
