<svg xmlns="http://www.w3.org/2000/svg" width="68" height="68" viewBox="0 0 68 68">
  <defs>
    <style>
      .cls-1 {
        fill: #fff;
        stroke-width: 0.5px;
      }

      .cls-1, .cls-3 {
        stroke: #fff;
      }

      .cls-2, .cls-3, .cls-6 {
        fill: none;
      }

      .cls-2 {
        stroke: #fcfcfc;
        stroke-width: 7px;
      }

      .cls-3 {
        stroke-width: 2px;
      }

      .cls-4 {
        fill: rgba(255,255,255,0);
        stroke: #f8f8f8;
        stroke-width: 3px;
      }

      .cls-5 {
        stroke: none;
      }
    </style>
  </defs>
  <g id="Logo" transform="translate(-292 -8)">
    <g id="Group_2" data-name="Group 2">
      <path id="Path_13" data-name="Path 13" class="cls-1" d="M7.788,0,5.111,6.416,4.543,7.777,4.089,8.866l-.073.175-.771,1.847L0,18.666" transform="translate(318.226 35.425) rotate(-21)"/>
      <line id="Line_4" data-name="Line 4" class="cls-2" x2="11.645" y2="24.953" transform="translate(303.5 30.547)"/>
      <path id="Path_14" data-name="Path 14" class="cls-3" d="M0,0,2.573,8.577l1.014,3.379,3.9,13" transform="translate(313.029 29.343) rotate(-6)"/>
      <path id="Path_15" data-name="Path 15" class="cls-1" d="M7.788,18.666,5.111,12.25l-.568-1.361L4.089,9.8l-.073-.175L3.245,7.777,0,0" transform="translate(327.406 52.851) rotate(-159)"/>
      <path id="Path_17" data-name="Path 17" class="cls-2" d="M11.645,0,8.006,7.8,0,24.953" transform="translate(337.177 30.547)"/>
      <path id="Path_16" data-name="Path 16" class="cls-3" d="M0,24.953l2.573-8.577L3.587,13l3.9-13" transform="matrix(-0.995, -0.105, 0.105, -0.995, 336.684, 54.159)"/>
      <g id="Ellipse_1" data-name="Ellipse 1" class="cls-4" transform="translate(292 8)">
        <circle class="cls-5" cx="34" cy="34" r="34"/>
        <circle class="cls-6" cx="34" cy="34" r="32.5"/>
      </g>
    </g>
  </g>
</svg>
