<svg xmlns="http://www.w3.org/2000/svg" width="87" height="81" viewBox="0 0 87 81">
  <defs>
    <style>
      .cls-1 {
        fill: rgba(255,255,255,0);
        stroke: #f5f5f5;
        stroke-linecap: round;
        stroke-width: 3px;
        stroke-dasharray: 0 1;
      }

      .cls-2 {
        fill: #fff;
        stroke-width: 1.5px;
      }

      .cls-2, .cls-4 {
        stroke: #fff;
      }

      .cls-3, .cls-4, .cls-6 {
        fill: none;
      }

      .cls-3 {
        stroke: #fcfcfc;
        stroke-width: 10px;
      }

      .cls-4 {
        stroke-width: 5px;
      }

      .cls-5 {
        stroke: none;
      }
    </style>
  </defs>
  <g id="Properlogo" transform="translate(-278)">
    <g id="Ellipse_2" data-name="Ellipse 2" class="cls-1" transform="translate(281 3)">
      <ellipse class="cls-5" cx="40.5" cy="37.5" rx="40.5" ry="37.5"/>
      <ellipse class="cls-6" cx="40.5" cy="37.5" rx="42" ry="39"/>
    </g>
    <path id="Path_13" data-name="Path 13" class="cls-2" d="M9.363,0,6.145,7.714,5.462,9.351,4.916,10.66l-.088.21L3.9,13.091,0,22.442" transform="translate(312.205 35.364) rotate(-21)"/>
    <line id="Line_4" data-name="Line 4" class="cls-3" x2="14" y2="30" transform="translate(294.5 29.5)"/>
    <path id="Path_14" data-name="Path 14" class="cls-4" d="M0,0,3.094,10.313l1.219,4.063L9,30" transform="translate(305.957 28.053) rotate(-6)"/>
    <path id="Path_15" data-name="Path 15" class="cls-2" d="M9.363,22.442,6.145,14.727l-.683-1.636-.546-1.309-.088-.21L3.9,9.351,0,0" transform="translate(323.241 56.315) rotate(-159)"/>
    <line id="Line_5" data-name="Line 5" class="cls-3" x1="14" y2="30" transform="translate(334.989 29.5)"/>
    <path id="Path_16" data-name="Path 16" class="cls-4" d="M0,30,3.094,19.688l1.219-4.063L9,0" transform="matrix(-0.995, -0.105, 0.105, -0.995, 334.396, 57.888)"/>
  </g>
</svg>
